<svg width="401" height="60" viewBox="0 0 401 60" fill="none" xmlns="http://www.w3.org/2000/svg">
<g clip-path="url(#clip0_1104_505)">
<path d="M113.34 26.3432V35.444H86.303V48.7105H75.0796V10.6621H114.613V20.0017H86.303V26.3432H113.34ZM131.674 39.3709H158.128V48.7105H120.451V10.6621H131.674V39.3709ZM201.695 24.9104V34.0112H174.658V39.3709H203.234V48.7105H163.434V10.6621H202.968V20.0017H174.658V24.9104H201.695ZM242.264 42.5548H222.099L218.729 48.7105H206.683L227.564 10.6621H236.798L257.679 48.7105H245.634L242.264 42.5548ZM226.769 34.0112H237.594L232.182 24.1144L226.769 34.0112ZM289.997 10.6621H304.67L284.797 27.0861L304.935 48.7105H291.217L277.049 33.4805L272.883 36.9298V48.7105H261.66V10.6621H272.883V24.8042L289.997 10.6621ZM347.202 24.9104V34.0112H320.165V39.3709H348.741V48.7105H308.941V10.6621H348.476V20.0017H320.165V24.9104H347.202ZM354.578 48.7105V10.6621H379.599C382.058 10.6621 384.339 10.9098 386.444 11.405C388.55 11.8827 390.363 12.661 391.884 13.7399C393.423 14.819 394.625 16.2252 395.492 17.9587C396.359 19.6745 396.792 21.7618 396.792 24.2205C396.792 25.7771 396.544 27.148 396.05 28.3331C395.572 29.5006 394.962 30.5177 394.218 31.3844C393.476 32.2335 392.653 32.9322 391.751 33.4805C390.866 34.0289 390.026 34.4446 389.231 34.7276L397.137 48.7105H385.091L378.431 36.9564H365.802V48.7105H354.578ZM365.802 20.0283V28.4127H379.599C381.633 28.4127 383.119 28.0943 384.056 27.4575C384.994 26.8031 385.462 25.724 385.462 24.2205C385.462 22.7347 384.994 21.6645 384.056 21.01C383.119 20.3555 381.633 20.0283 379.599 20.0283H365.802Z" fill="white"/>
<path d="M48.1831 8.96963L17.9035 2.85914C16.8498 2.64648 16.0651 3.82706 16.6698 4.71506L30.7692 25.4171C32.3205 27.6949 30.2184 30.6997 27.5454 30.0252L10.34 25.6835C5.19819 24.3861 1.00323 29.9457 3.66214 34.5336L12.9106 50.4921" stroke="white" stroke-width="10"/>
<path d="M43.9394 14.9483C47.1762 17.4057 51.7923 16.7736 54.2495 13.5367C56.7071 10.2998 56.0749 5.68371 52.8378 3.22644C49.6011 0.769161 44.9851 1.40114 42.5277 4.63809C40.0704 7.87501 40.7024 12.491 43.9394 14.9483Z" fill="white" stroke="black" stroke-width="4"/>
<path d="M9.27968 56.8601C12.5166 59.3178 17.1327 58.6856 19.5899 55.4486C22.0472 52.212 21.4152 47.596 18.1783 45.1388C14.9414 42.6811 10.3253 43.3133 7.86803 46.5505C5.41078 49.7871 6.04273 54.4031 9.27968 56.8601Z" fill="black" stroke="white" stroke-width="4"/>
</g>
<defs>
<clipPath id="clip0_1104_505">
<rect width="400.189" height="60" fill="white"/>
</clipPath>
</defs>
</svg>
