<svg width="60" height="60" viewBox="0 0 60 60" fill="none" xmlns="http://www.w3.org/2000/svg">
<path fill-rule="evenodd" clip-rule="evenodd" d="M46.0777 12.237C46.5764 12.0272 47.1222 11.9548 47.6583 12.0274C48.1945 12.1001 48.7013 12.3151 49.1262 12.6501C49.551 12.9851 49.8783 13.4279 50.0739 13.9323C50.2696 14.4367 50.3265 14.9844 50.2387 15.5183L45.662 43.2796C45.2181 45.9575 42.28 47.4932 39.8242 46.1593C37.77 45.0434 34.7189 43.324 31.9745 41.53C30.6023 40.632 26.399 37.7564 26.9156 35.7102C27.3596 33.9606 34.4222 27.386 38.4581 23.4772C40.0421 21.9415 39.3197 21.0556 37.4491 22.4682C32.8039 25.9755 25.3457 31.309 22.8798 32.8104C20.7045 34.1342 19.5704 34.3602 18.2144 34.1342C15.7404 33.7225 13.446 33.0848 11.5734 32.3079C9.04295 31.2585 9.16604 27.7795 11.5714 26.7665L46.0777 12.237Z" fill="white"/>
</svg>
