<svg width="61" height="60" viewBox="0 0 61 60" fill="none" xmlns="http://www.w3.org/2000/svg">
<path d="M40.5888 30.6839H50.3872V41.5281H20.2322C18.7438 41.5281 19.1929 41.5281 12.2888 50C13.2399 39.3023 14.2322 39.3386 13.2399 38.3678C12.2684 37.3763 11.4932 36.2195 10.9144 34.8977C10.3562 33.5757 10.0771 32.1712 10.0771 30.6839C10.0771 29.1967 10.3562 27.7921 10.9144 26.4702C11.4932 25.1482 12.2684 24.0018 13.2399 23.031C14.2322 22.0396 15.3898 21.265 16.7128 20.7073C18.0358 20.1289 19.4415 19.8397 20.9299 19.8397H37.8737C38.353 19.8397 38.8052 19.6181 39.0989 19.2395L46.2641 10L44.881 18.026C44.7176 18.9736 45.4474 19.8397 46.4088 19.8397H50.3872V27.8953H22.9454C22.0771 27.8953 21.3433 28.1433 20.7438 28.6391C20.1443 29.1347 19.8446 29.8164 19.8446 30.6839C19.8446 31.5515 20.1443 32.233 20.7438 32.7288C21.3433 33.2245 22.0771 33.4724 22.9454 33.4724H40.5888V30.6839Z" fill="white"/>
</svg>
